<svg width="54" height="53" viewBox="0 0 54 53" fill="none" xmlns="http://www.w3.org/2000/svg">
<rect x="0.863518" y="0.586174" width="51.7826" height="51.7826" rx="25.8913" fill="#E9ECEF"/>
<rect x="0.863518" y="0.586174" width="51.7826" height="51.7826" rx="25.8913" stroke="#DEE2E6" stroke-width="0.750473"/>
<g clip-path="url(#clip0_1054_21427)">
<g clip-path="url(#clip1_1054_21427)">
<path d="M45.7086 23.6061C45.3555 21.0887 44.473 18.7016 43.1786 16.5709C43.0147 16.2977 42.649 16.2263 42.3843 16.407C42.2288 16.5162 42.1405 16.6927 42.1405 16.8693C42.1405 16.9659 42.1657 17.0668 42.2204 17.155C42.7415 18.0082 43.1659 18.8613 43.4391 19.6262C42.4053 19.7775 41.3798 19.933 40.3502 20.0801C39.0558 20.2692 37.7613 20.4457 36.4711 20.6516C36.0803 20.7189 35.8365 20.6811 35.5886 20.3028C34.8867 19.2185 33.9579 18.3276 32.8442 17.5585C34.8027 16.0077 36.7401 14.4779 38.6859 12.9398C39.4046 13.5239 40.1526 14.314 40.8419 15.184C41.0226 15.4151 41.3546 15.4614 41.5942 15.2933C41.7539 15.184 41.8379 15.0075 41.8379 14.831C41.8379 14.7091 41.7959 14.5872 41.716 14.4864C39.0305 11.1326 35.2356 8.67409 30.9278 7.74951C30.0747 7.56459 29.2174 7.4217 28.3432 7.37127C28.2844 7.36707 24.3927 7.43851 23.9851 7.50155C15.7185 8.77916 9.37245 14.9655 7.91834 23.1648C7.0652 27.96 8.12427 32.7427 10.587 36.6511C10.7551 36.9201 11.1166 36.9873 11.3813 36.8108C11.5368 36.7016 11.6209 36.5292 11.6209 36.3527C11.6209 36.2477 11.5915 36.1426 11.5284 36.0459C10.9821 35.1718 10.503 34.2472 10.0911 33.2596C12.5118 32.9024 14.8989 32.5535 17.286 32.1963C17.5508 32.1543 17.7063 32.2047 17.8618 32.4443C18.551 33.4991 19.4168 34.3817 20.4338 35.1256C20.5095 35.1844 20.5893 35.2432 20.6986 35.3273C18.7486 36.8739 16.8153 38.3994 14.8569 39.946C14.1719 39.3366 13.5415 38.6894 12.9615 38.0044C12.7724 37.7774 12.4488 37.7312 12.205 37.8993C12.0453 38.0086 11.9613 38.1851 11.9613 38.3616C11.9613 38.4877 12.0033 38.6096 12.0874 38.7146C14.2307 41.295 17.0675 43.3333 20.4002 44.4975C31.222 48.2756 42.8592 41.8666 45.4438 30.7002C45.6371 29.8638 45.8388 29.0191 45.8388 28.1576C45.9397 27.0817 45.8725 24.3836 45.7086 23.6061ZM27.5531 15.6883C27.5531 15.6883 26.3301 15.6841 26.0738 15.7009C24.7079 15.7808 23.4051 16.1212 22.1149 16.7306C21.993 15.89 21.8711 15.0495 21.7451 14.2132C21.6988 13.8938 21.392 13.6794 21.0768 13.7467C20.7868 13.8055 20.5935 14.0829 20.6356 14.3771C20.7364 15.0789 20.9171 16.3145 21.0222 17.0416C21.0432 17.1887 21.0768 17.3147 20.9003 17.424C19.7194 18.1931 18.7233 19.1597 17.887 20.3659C16.3278 18.3948 14.8023 16.4616 13.2683 14.52C15.1343 12.4187 17.3449 10.8385 19.9589 9.75417C20.064 10.4728 20.1691 11.1831 20.2741 11.8891C20.3204 12.2085 20.6271 12.4229 20.9423 12.3556C21.2323 12.2968 21.4257 12.0194 21.3836 11.7252C21.266 10.9435 21.1567 10.1618 21.0432 9.38434C22.8672 8.65728 27.406 8.32107 30.3479 8.77496C33.0964 9.3297 35.5634 10.4644 37.816 12.1959C36.3451 13.3558 34.9119 14.4906 33.4746 15.6253C32.9871 16.0077 32.4996 16.3944 32.0121 16.781C31.9029 16.8693 31.8104 16.9407 31.6549 16.8566C30.4151 16.2136 29.0997 15.8396 27.7086 15.7177C27.6876 15.7177 27.6288 15.7093 27.5531 15.6883ZM12.4782 15.4698C12.495 15.4488 12.5118 15.4235 12.5286 15.4025C13.2515 16.3187 13.9617 17.2139 14.6678 18.109C15.4579 19.1051 16.2354 20.1095 17.0423 21.0929C17.2314 21.3283 17.244 21.5048 17.0927 21.7443C16.9919 21.9124 16.9204 22.1016 16.8406 22.2823C16.6809 22.6689 16.7859 23.0093 17.1011 23.1312C17.4163 23.2573 17.7063 23.1144 17.866 22.732C18.2653 21.7864 18.778 20.8996 19.4714 20.1431C22.2073 17.1718 25.5737 16.0834 29.4485 17.2097C33.2435 18.3108 35.576 20.9458 36.2568 24.8501C37.1898 30.2379 33.483 35.2222 28.0995 35.9913C22.7327 36.7604 17.7189 32.8183 17.1852 27.4221C17.1011 26.5984 17.1179 25.7831 17.244 24.9678C17.3071 24.5643 17.1137 24.2575 16.7691 24.2113C16.4581 24.1735 16.206 24.392 16.1471 24.766C16.1009 25.0308 16.0715 25.2998 16.0252 25.6192C16.0042 25.9512 16.021 26.88 16.0337 27.1195C16.1177 28.498 16.4581 29.8092 17.0675 31.0994C14.5795 31.4651 12.1546 31.8181 9.68765 32.1795C9.19174 30.6876 8.95219 28.8216 8.90596 26.9724C8.80089 22.837 9.96503 18.7478 12.4782 15.4698ZM15.8025 40.7319C15.7815 40.7151 15.7563 40.6983 15.7353 40.6815C17.7441 39.0971 19.732 37.5253 21.7282 35.9451C21.7408 35.9535 21.7535 35.9577 21.7661 35.9661C23.6489 36.9411 25.8048 37.2605 27.9061 36.9747C29.1921 36.8024 30.621 36.525 31.4364 36.1426C31.7978 38.6306 32.155 41.0681 32.5122 43.5267C31.0287 44.0142 29.1627 44.2495 27.3262 44.2999C23.1866 44.4092 19.0932 43.2367 15.8025 40.7319ZM37.4419 27.8214C37.4924 27.4347 37.505 27.0481 37.5092 26.6572C37.5134 26.2958 37.5176 25.8797 37.5092 25.7579C37.4209 24.3794 37.0847 23.064 36.4711 21.778C38.9633 21.4165 41.3882 21.0635 43.8552 20.7021C44.3847 22.2991 44.5991 24.4466 44.6033 26.5185C44.6159 30.4396 43.4349 34.2934 41.0646 37.4118C41.0478 37.4328 41.031 37.4538 41.0142 37.4748C40.7494 37.1428 40.5015 36.8276 40.2493 36.5124C39.9551 36.151 39.6357 36.0838 39.3541 36.3233C39.0978 36.5419 39.1062 36.8697 39.3752 37.2143C39.6735 37.5925 39.9719 37.975 40.2787 38.3616C38.4044 40.4629 36.1938 42.0473 33.5881 43.1274C33.3065 41.2026 33.0292 39.3072 32.7518 37.4118C32.6719 36.8697 32.6005 36.3275 32.5164 35.7896C32.4954 35.6425 32.4996 35.5374 32.6467 35.445C33.8319 34.6759 34.8195 33.7051 35.6558 32.5115C35.9836 32.9276 36.2988 33.3226 36.614 33.7177C37.0175 34.2262 37.4167 34.7389 37.8202 35.2432C38.0934 35.5836 38.4128 35.6425 38.6859 35.4155C38.9423 35.2012 38.9591 34.8818 38.7027 34.554C37.9042 33.537 37.0973 32.5241 36.2778 31.4819C36.883 30.3261 37.2738 29.12 37.4419 27.8214Z" fill="#040404"/>
<path d="M26.7607 23.1445C24.92 23.1403 23.4238 24.6239 23.4238 26.4604C23.4196 28.3012 24.9032 29.7973 26.7397 29.8015C28.5805 29.8057 30.0766 28.3222 30.0808 26.4856C30.085 24.6407 28.6015 23.1487 26.7607 23.1445ZM26.7355 28.692C25.521 28.6878 24.5333 27.7002 24.5333 26.4856C24.5291 25.2459 25.5168 24.254 26.7481 24.254C27.9837 24.254 28.9755 25.2459 28.9713 26.4814C28.9713 27.7128 27.9711 28.7004 26.7355 28.692Z" fill="#D32525"/>
<path d="M27.3009 20.1363C27.3009 20.4179 27.3135 20.6995 27.2967 20.9811C27.2757 21.3047 27.0992 21.5022 26.763 21.5232C26.4478 21.54 26.2124 21.3257 26.204 20.9727C26.1872 20.4221 26.1872 19.8674 26.204 19.3168C26.2124 18.9638 26.4394 18.7537 26.7546 18.7579C27.0698 18.7621 27.2715 18.968 27.3051 19.3252C27.3093 19.3504 27.3093 19.3757 27.3093 19.3967C27.3051 19.6446 27.3051 19.8884 27.3009 20.1363Z" fill="#040404"/>
<path d="M26.1997 32.8042C26.1997 32.5227 26.1829 32.2411 26.2039 31.9595C26.2249 31.6275 26.4435 31.43 26.7461 31.4258C27.0487 31.4258 27.284 31.6191 27.2924 31.9511C27.3134 32.5269 27.3134 33.1026 27.2924 33.6784C27.2798 34.0062 27.0403 34.1995 26.7377 34.1911C26.4351 34.1827 26.2249 33.9852 26.2039 33.649C26.1871 33.3674 26.1997 33.0858 26.1997 32.8042Z" fill="#040404"/>
<path d="M21.7844 27.9209C21.7592 28.131 21.6541 28.2991 21.4566 28.4084C21.0111 28.6648 20.5699 28.9337 20.1202 29.1817C19.7756 29.375 19.452 29.291 19.2923 28.9926C19.141 28.7068 19.2376 28.421 19.5696 28.2193C20.0235 27.9503 20.4774 27.6814 20.9397 27.4334C21.3431 27.2233 21.7928 27.4838 21.7844 27.9209Z" fill="#040404"/>
<path d="M32.2946 25.5984C32.0298 25.5899 31.8491 25.4723 31.7566 25.2243C31.6684 24.9848 31.7272 24.7578 31.9289 24.6359C32.4585 24.3039 32.9964 23.9845 33.5512 23.6988C33.7907 23.5769 34.0387 23.6861 34.19 23.9215C34.3413 24.161 34.3286 24.43 34.1143 24.5897C33.5932 24.9764 33.0132 25.2748 32.4375 25.5773C32.3954 25.5984 32.3366 25.5899 32.2946 25.5984Z" fill="#040404"/>
<path d="M32.746 31.3483C32.7376 31.7727 32.3467 32.0501 31.9937 31.8694C31.46 31.6004 30.9389 31.2936 30.4303 30.9784C30.1656 30.8103 30.132 30.533 30.2748 30.264C30.4303 29.9824 30.7077 29.9068 30.9725 30.0413C31.5062 30.3144 32.0189 30.6296 32.5317 30.9406C32.6872 31.0373 32.7628 31.197 32.746 31.3483Z" fill="#040404"/>
<path d="M31.545 28.6801C31.6416 28.6759 31.7425 28.7137 31.8433 28.7725C32.2888 29.0289 32.7385 29.281 33.1798 29.5458C33.495 29.7349 33.6 30.0459 33.453 30.3233C33.2975 30.6133 32.9696 30.6931 32.6292 30.504C32.1669 30.2476 31.7131 29.9829 31.2592 29.7181C31.007 29.571 30.9061 29.3357 30.9986 29.0583C31.0743 28.8061 31.2592 28.6717 31.545 28.6801Z" fill="#040404"/>
<path d="M33.5055 22.8993C33.5013 23.1305 33.3795 23.286 33.1819 23.3994C32.7365 23.6558 32.2952 23.9206 31.8455 24.1727C31.5051 24.3618 31.1815 24.2778 31.0218 23.9752C30.8705 23.6936 30.9714 23.4078 31.3034 23.2103C31.7572 22.9413 32.2069 22.6682 32.6734 22.4202C33.0811 22.2059 33.5182 22.4664 33.5055 22.8993Z" fill="#040404"/>
<path d="M22.3093 23.2821C22.5573 23.4376 22.6119 23.6982 22.4774 23.963C22.3345 24.2487 22.0613 24.3622 21.7966 24.2277C21.2418 23.9461 20.7039 23.6225 20.1786 23.2863C19.9726 23.1602 19.9516 22.9165 20.0315 22.6896C20.1155 22.4584 20.2962 22.3491 20.561 22.3281C20.6156 22.3407 20.6913 22.3449 20.7543 22.3828L22.3093 23.2821Z" fill="#040404"/>
<path d="M22.5389 29.2264C22.5389 29.4407 22.4338 29.6046 22.2531 29.7097C21.7908 29.9828 21.3243 30.2602 20.8536 30.5208C20.5384 30.6931 20.2106 30.6006 20.0593 30.3233C19.9164 30.0585 20.0047 29.7433 20.2947 29.5668C20.757 29.2894 21.2193 29.0162 21.6984 28.7599C22.106 28.5413 22.5389 28.7935 22.5389 29.2264Z" fill="#040404"/>
<path d="M23.296 22.3289C23.3044 22.8164 22.8884 23.0938 22.4975 22.8878C21.9848 22.6231 21.4931 22.3289 21.0014 22.0221C20.7282 21.854 20.6778 21.5346 20.8333 21.2782C20.9888 21.0261 21.2872 20.9336 21.5687 21.0849C22.0646 21.3539 22.548 21.6438 23.0313 21.9296C23.2036 22.0347 23.296 22.1902 23.296 22.3289Z" fill="#040404"/>
<path d="M28.83 20.1494C28.83 20.4184 28.8384 20.6916 28.83 20.9605C28.8174 21.301 28.5905 21.5237 28.2795 21.5237C27.9853 21.5237 27.7373 21.3094 27.7289 20.9942C27.7121 20.4184 27.7121 19.8384 27.7331 19.2627C27.7457 18.9517 28.0063 18.7457 28.3005 18.7542C28.6031 18.7626 28.8132 18.9727 28.83 19.3005C28.8384 19.5863 28.8258 19.8679 28.83 20.1494Z" fill="#040404"/>
<path d="M24.6803 32.8085C24.6803 32.5269 24.6719 32.2454 24.6845 31.9638C24.6971 31.6444 24.9241 31.43 25.2225 31.4258C25.5208 31.4216 25.7688 31.6276 25.7814 31.9428C25.8024 32.5185 25.7982 33.0985 25.7814 33.6743C25.773 33.9895 25.5208 34.1996 25.2225 34.1954C24.9199 34.1912 24.7013 33.9811 24.6845 33.6574C24.6677 33.3717 24.6803 33.0901 24.6803 32.8085Z" fill="#040404"/>
</g>
</g>
<defs>
<clipPath id="clip0_1054_21427">
<rect width="42.0265" height="42.0265" fill="white" transform="translate(5.73828 5.46484)"/>
</clipPath>
<clipPath id="clip1_1054_21427">
<rect width="42.0265" height="42.0265" fill="white" transform="translate(5.73828 5.46484)"/>
</clipPath>
</defs>
</svg>
