<svg width="54" height="53" viewBox="0 0 54 53" fill="none" xmlns="http://www.w3.org/2000/svg">
<rect x="1.05395" y="0.586174" width="51.7826" height="51.7826" rx="25.8913" fill="#E9ECEF"/>
<rect x="1.05395" y="0.586174" width="51.7826" height="51.7826" rx="25.8913" stroke="#DEE2E6" stroke-width="0.750473"/>
<g clip-path="url(#clip0_1054_21353)">
<g clip-path="url(#clip1_1054_21353)">
<path d="M35.8434 36.2468C35.0659 35.339 34.2716 34.4523 33.4731 33.5655C32.8889 32.9099 32.0904 32.7376 31.2751 33.0696C29.7831 33.6874 28.4215 33.3428 27.4381 32.0778C26.9884 31.502 26.5345 30.9221 26.089 30.3421C25.8158 29.9933 25.3157 29.926 24.9627 30.1866C24.7484 30.3505 24.6349 30.59 24.6349 30.838C24.6349 31.0103 24.6937 31.1826 24.803 31.3339C25.2107 31.8677 25.6141 32.3972 26.0176 32.9351C27.4549 34.8599 29.884 35.4483 31.8551 34.5069C32.0652 34.4061 32.1955 34.4817 32.3173 34.633C33.057 35.5534 33.8051 36.4611 34.5279 37.3941C34.9062 37.8774 34.8894 37.9783 34.3808 38.3397C33.8177 38.7348 33.4899 39.2265 33.3008 39.8989C32.7628 41.7943 31.3339 42.866 29.3671 42.8996C28.7115 42.9122 28.224 43.2064 27.7701 43.6351C27.3624 44.0175 27.3162 44.0049 26.9632 43.5636C26.2151 42.6348 25.4754 41.7019 24.7232 40.7773C24.5466 40.5629 24.5298 40.4032 24.7148 40.1553C26.0008 38.3818 25.8032 35.9148 24.4542 34.1791C22.1679 31.2331 19.8691 28.2828 17.5745 25.3409C17.4736 25.2065 17.3727 25.0762 17.2635 24.9291H19.6296C19.8103 24.9249 19.8943 25.0552 19.991 25.1728C20.8147 26.2319 21.651 27.2868 22.4789 28.3374C22.7521 28.6862 23.2522 28.7493 23.6011 28.4845C23.8154 28.3248 23.9289 28.0811 23.9289 27.8331C23.9289 27.6608 23.8742 27.4843 23.7608 27.3372C23.248 26.6816 22.7437 26.026 22.231 25.3704C22.1848 25.3031 22.0965 25.2485 22.1175 25.1308C22.2184 25.1434 22.3192 25.1434 22.4159 25.1728C23.2438 25.4502 24.1054 25.4334 24.9585 25.4208C25.8285 25.4124 26.0386 25.2107 26.0386 24.3575C26.0386 19.7808 26.0134 15.2042 26.0512 10.6275C26.0596 9.59362 25.6015 8.99684 24.7358 8.58918C23.9457 8.21515 23.0967 8.02182 22.231 7.89995C19.5791 7.5133 16.9188 7.5049 14.2544 7.83271C13.1869 7.96299 12.1278 8.16892 11.1612 8.67744C10.4089 9.07249 10.0181 9.65245 10.0265 10.5518C10.0391 13.002 10.0391 15.4521 10.0391 17.9107C10.0391 18.3477 10.3921 18.7008 10.8292 18.7008C11.2621 18.7008 11.6151 18.3519 11.6151 17.9191C11.6151 17.9149 11.6151 17.9149 11.6151 17.9107V17.7131C11.6109 17.3853 11.7286 17.2256 12.0101 17.1037C12.9263 16.7087 13.9013 16.5532 14.8764 16.4481C17.2004 16.2002 19.5287 16.2086 21.8485 16.5196C22.6513 16.6288 23.4372 16.7843 24.1936 17.0827C24.4458 17.1836 24.5551 17.3349 24.5466 17.6291C24.534 19.6758 24.5424 21.7309 24.5424 23.8028C23.786 23.9499 23.1135 23.6683 22.4243 23.5758C19.1252 23.1219 15.843 23.0883 12.5733 23.8028C12.2791 23.8658 11.9639 23.8364 11.6781 23.8448C11.5899 23.7103 11.6235 23.5926 11.6235 23.4792V21.983C11.6235 21.5417 11.2705 21.1887 10.8292 21.1887C10.3879 21.1887 10.0349 21.5417 10.0349 21.983V24.3281C10.0349 24.4836 10.0307 24.6349 10.0601 24.7904C10.1232 25.1224 10.3207 25.3662 10.6653 25.3956C11.405 25.4544 12.1572 25.509 12.8843 25.3746C13.6114 25.2359 14.3468 25.114 15.0781 24.9921C15.2966 24.9543 15.4479 24.9963 15.595 25.1896C18.2385 28.556 20.8945 31.9139 23.538 35.2802C24.5172 36.5242 24.5256 37.9405 23.5968 39.2139C22.937 40.1048 23.0589 41.0294 23.9583 41.8952C24.5803 42.5004 25.177 43.1392 25.5973 43.8956C26.4757 45.48 27.7785 45.7994 28.9468 44.7572C29.2788 44.4546 29.6192 44.3159 30.0731 44.2949C32.3468 44.1898 34.4103 42.5676 34.9902 40.42C35.0995 40.0082 35.276 39.7182 35.629 39.4913C36.0661 39.2055 36.4107 38.8356 36.5158 38.2935C36.6587 37.4824 36.3435 36.8268 35.8434 36.2468ZM11.6235 10.4005C11.6193 10.1652 11.8126 10.1147 11.9681 10.0391C12.6447 9.70709 13.3718 9.55999 14.1073 9.45913C16.9693 9.07669 19.8271 9.05147 22.6765 9.58941C23.2102 9.69028 23.7229 9.83317 24.2104 10.0643C24.4416 10.1694 24.5593 10.3123 24.5466 10.598C24.5214 11.1528 24.5424 11.716 24.5424 12.2329C20.2263 11.2074 15.9396 11.136 11.6235 12.1698V10.4005ZM24.5424 15.4689C20.2221 14.4056 15.948 14.4183 11.6235 15.4689C11.6235 15.0529 11.6151 14.5864 11.6277 14.1199C11.6361 13.9223 11.8378 13.8803 11.9807 13.8089C12.7078 13.4685 13.4895 13.3214 14.2796 13.2121C16.9609 12.8591 19.6464 12.8633 22.3234 13.2835C22.9791 13.3844 23.6263 13.5273 24.2483 13.7963C24.4584 13.8929 24.5593 14.0106 24.5509 14.2628C24.5214 14.6746 24.5424 15.0865 24.5424 15.4689Z" fill="#030303"/>
<path d="M43.9805 21.9728C43.5855 21.9728 43.2618 22.2964 43.2661 22.6915C43.2661 23.0697 43.2661 23.4438 43.2661 23.8178V24.196C42.6609 24.3011 42.1061 24.1666 41.5388 24.0574C39.1937 23.6035 36.8276 23.5783 34.4573 23.7253C33.3814 23.7968 32.3224 23.9439 31.2717 24.196C30.9943 24.2633 30.6875 24.2044 30.3891 24.2044C30.3135 24.091 30.3513 23.9565 30.3513 23.8304C30.3471 21.935 30.3597 20.0354 30.3387 18.1442C30.3387 17.7828 30.4774 17.6063 30.78 17.4844C31.6331 17.1272 32.5325 16.9675 33.4403 16.8624C35.7013 16.5977 37.9875 16.5935 40.2485 16.8792C41.1269 16.9885 41.9968 17.1524 42.8206 17.4844C43.1232 17.6021 43.2871 17.5475 43.2534 18.8124C43.245 19.1949 43.5939 19.4933 43.9763 19.4933C44.3755 19.4933 44.6992 19.1697 44.6992 18.7704C44.695 16.211 44.6992 13.6474 44.7202 11.088C44.7286 10.0121 44.2663 9.38171 43.3501 8.96985C42.5642 8.60842 41.7279 8.4151 40.8789 8.29322C38.038 7.88977 35.2012 7.88977 32.3728 8.30583C31.3305 8.46133 30.3051 8.68407 29.4099 9.29345C28.8888 9.64647 28.624 10.1172 28.624 10.7812C28.6366 15.4629 28.6324 20.1447 28.6324 24.8222C28.6324 25.5703 28.872 25.8141 29.6158 25.8141C30.6245 25.8183 31.6415 25.9065 32.6081 25.4821C32.6291 25.5157 32.6418 25.5493 32.6544 25.5787C32.15 26.2259 31.6457 26.8689 31.1456 27.5161C30.3849 28.4953 29.6116 29.4662 28.8552 30.4496C28.4769 30.9371 28.582 31.475 29.0695 31.7104C29.4519 31.8911 29.805 31.7902 30.1034 31.4036C31.6457 29.4367 33.1923 27.4699 34.7347 25.5031C34.8145 25.398 34.8776 25.2551 35.0415 25.2425C35.8442 25.1963 36.6385 25.1711 37.5126 25.1879C37.3655 25.377 37.2689 25.5031 37.168 25.6333C35.4407 27.8439 34.8986 28.8652 33.1671 31.0758C32.7973 31.5549 32.793 32.0172 33.1545 32.3029C33.5705 32.6308 34.0244 32.5425 34.4027 32.0592C36.3275 29.6091 37.0755 28.3609 38.9709 25.8855C39.3198 25.4358 39.6518 25.3097 40.1855 25.4106C41.3286 25.6165 42.4591 25.9107 43.6443 25.8225C44.4806 25.7594 44.7118 25.5787 44.7118 24.734C44.7118 24.0489 44.7118 23.3681 44.7118 22.6831C44.695 22.2922 44.3755 21.9728 43.9805 21.9728ZM30.1874 10.8274C30.1874 10.5879 30.3849 10.5416 30.532 10.466C31.2423 10.1256 32.0072 9.95747 32.7804 9.8524C35.6593 9.45315 38.5297 9.45735 41.3917 9.98689C41.896 10.0835 42.3877 10.2054 42.8542 10.4324C42.9971 10.4996 43.1148 10.5669 43.1063 10.7644C43.0979 11.3696 43.1021 11.9663 43.1021 12.5505C38.7944 11.4872 34.5035 11.4998 30.1832 12.5589C30.1874 12.0042 30.1916 11.4116 30.1874 10.8274ZM30.2673 14.5678C30.2715 14.3492 30.469 14.2904 30.6287 14.2148C31.3473 13.8701 32.1332 13.7188 32.9149 13.6138C35.571 13.265 38.2271 13.2481 40.8747 13.6768C41.5304 13.7861 42.1776 13.9374 42.7912 14.2063C43.0643 14.3198 43.224 14.4753 43.1946 14.8115C43.1568 15.173 43.1862 15.5386 43.1862 15.8622C38.8659 14.8031 34.5876 14.8115 30.2673 15.8706C30.2673 15.4545 30.2631 15.0133 30.2673 14.5678Z" fill="#030303"/>
<path d="M29.4672 36.1055C27.9669 36.1055 26.7019 37.3621 26.7061 38.8498C26.7103 40.3375 27.9879 41.6025 29.4714 41.5983C30.9465 41.5983 32.2031 40.3417 32.2031 38.8708C32.2073 37.3579 30.9633 36.1055 29.4672 36.1055ZM29.5555 40.6906C28.5342 40.699 27.6727 39.8794 27.6811 38.9002C27.6853 37.9168 28.4838 37.0889 29.421 37.0721C30.4128 37.0637 31.2912 37.8748 31.2996 38.8162C31.3164 39.808 30.5053 40.6822 29.5555 40.6906Z" fill="#D32525"/>
</g>
</g>
<defs>
<clipPath id="clip0_1054_21353">
<rect width="42.0265" height="42.0265" fill="white" transform="translate(5.93262 5.46484)"/>
</clipPath>
<clipPath id="clip1_1054_21353">
<rect width="42.0265" height="42.0265" fill="white" transform="translate(5.93262 5.46484)"/>
</clipPath>
</defs>
</svg>
