<svg width="54" height="53" viewBox="0 0 54 53" fill="none" xmlns="http://www.w3.org/2000/svg">
<rect x="1.08227" y="0.586174" width="51.7826" height="51.7826" rx="25.8913" fill="#E9ECEF"/>
<rect x="1.08227" y="0.586174" width="51.7826" height="51.7826" rx="25.8913" stroke="#DEE2E6" stroke-width="0.750473"/>
<g clip-path="url(#clip0_1054_21407)">
<g clip-path="url(#clip1_1054_21407)">
<path d="M45.2345 28.8649C45.1252 28.9237 45.142 29.0456 45.1084 29.1338C44.789 29.9786 44.0494 30.5165 43.1458 30.5375C42.797 30.5459 42.4523 30.5459 42.1035 30.5375C41.9522 30.5333 41.8598 30.5543 41.8093 30.7393C41.4983 31.8445 41.0655 32.8994 40.4981 33.8996C40.4099 34.0551 40.4435 34.1392 40.5612 34.2527C40.8049 34.4838 41.0403 34.7234 41.2756 34.9629C42.1119 35.8371 42.1245 37.0895 41.2798 37.9594C40.4519 38.8167 39.6072 39.6615 38.7498 40.4894C37.8757 41.3341 36.6359 41.3173 35.7533 40.4768C35.5096 40.2456 35.27 40.0103 35.0431 39.7623C34.9296 39.6405 34.8414 39.6194 34.6901 39.7077C33.6898 40.2751 32.635 40.7079 31.5297 41.0189C31.3742 41.061 31.3279 41.1282 31.3321 41.2795C31.3405 41.6367 31.3405 41.9981 31.3321 42.3554C31.3069 43.5069 30.4034 44.4231 29.2476 44.4357C28.0415 44.4483 26.8395 44.4483 25.6333 44.4357C24.465 44.4231 23.5572 43.5027 23.5404 42.3302C23.532 41.9267 23.5404 41.519 23.5404 41.082C22.868 40.876 22.1998 40.6743 21.561 40.3801C21.1113 40.1742 20.6658 39.9515 20.2245 39.7203C20.0564 39.6321 19.9472 39.6194 19.8127 39.7749C19.5983 40.0187 19.363 40.2414 19.1276 40.4642C18.2493 41.3047 17.0053 41.3299 16.1312 40.4894C15.2654 39.6531 14.4123 38.7999 13.5759 37.9342C12.748 37.0726 12.7732 35.8329 13.5886 34.9629C13.8701 34.6603 14.3618 34.4208 14.3955 34.0551C14.4291 33.7147 14.0719 33.3449 13.8996 32.9793C13.5633 32.269 13.2818 31.5336 13.0758 30.7771C13.0212 30.5795 12.9371 30.5333 12.7438 30.5291C12.2479 30.5249 11.7478 30.5922 11.2561 30.4703C10.3189 30.2391 9.65067 29.428 9.64227 28.4614C9.62966 27.2468 9.62966 26.0281 9.64227 24.8135C9.65488 23.6788 10.5669 22.771 11.6974 22.7416C12.0546 22.7332 12.416 22.7332 12.7732 22.7416C12.9329 22.7458 13.0128 22.7122 13.0632 22.5357C13.3742 21.4304 13.8071 20.3755 14.3745 19.3753C14.4501 19.2408 14.4459 19.1568 14.3324 19.0475C14.0887 18.8163 13.8533 18.5768 13.618 18.3372C12.7522 17.4379 12.7438 16.1855 13.618 15.2903C14.4333 14.454 15.2612 13.6261 16.1017 12.8108C16.9969 11.9408 18.2493 11.9576 19.1487 12.8318C19.3882 13.0671 19.6278 13.3025 19.8589 13.5462C19.9556 13.6471 20.0312 13.6597 20.1573 13.5882C20.691 13.2857 21.2416 13.0251 21.8089 12.7939C22.3637 12.567 22.9352 12.3821 23.5404 12.2056C23.5404 11.8357 23.5404 11.4659 23.5404 11.1003C23.5446 9.97397 24.0616 9.27212 25.15 8.9149C25.1753 8.90649 25.1921 8.86867 25.2131 8.84766C26.6714 8.84766 28.1339 8.84766 29.5922 8.84766C29.6006 8.86447 29.6091 8.89809 29.6259 8.90229C30.7564 9.19227 31.3321 9.93194 31.3363 11.1003C31.3363 11.4701 31.3363 11.8357 31.3363 12.2098C32.5383 12.5376 33.6562 12.9915 34.7153 13.5882C34.8624 13.6723 34.938 13.6303 35.0389 13.5252C35.2784 13.273 35.5222 13.0293 35.7743 12.7897C36.6443 11.9702 37.8799 11.9576 38.7414 12.7855C39.6072 13.6219 40.4603 14.475 41.2966 15.3365C42.1203 16.1897 42.1077 17.4421 41.2924 18.3078C41.0613 18.5516 40.8301 18.7953 40.578 19.0181C40.4225 19.1568 40.4267 19.266 40.5233 19.4299C40.8679 20.0183 41.1495 20.6403 41.3933 21.2749C41.574 21.7582 41.7295 22.2499 41.8934 22.7416C42.1666 22.7416 42.4187 22.7416 42.6751 22.7416C44.146 22.7416 44.6461 23.0736 45.2051 24.4059C45.2093 24.4143 45.2261 24.4143 45.2387 24.4143C45.2345 25.902 45.2345 27.3813 45.2345 28.8649ZM27.4363 43.0488C28.0036 43.0488 28.571 43.053 29.1384 43.0488C29.6511 43.0446 29.9327 42.763 29.9411 42.2545C29.9453 41.7334 29.9411 41.2122 29.9411 40.6911C29.9411 40.1658 30.0966 39.9557 30.6051 39.8296C31.9962 39.485 33.3032 38.947 34.5262 38.199C34.9422 37.9426 35.207 37.9804 35.5516 38.3166C35.9256 38.6823 36.2871 39.0563 36.6611 39.4219C37.0772 39.8296 37.447 39.8296 37.8673 39.4135C38.6489 38.6402 39.4264 37.8585 40.2039 37.0768C40.6284 36.6524 40.62 36.2825 40.1913 35.8455C39.8257 35.4714 39.4517 35.11 39.086 34.736C38.775 34.4208 38.7372 34.1518 38.9726 33.7694C39.729 32.5254 40.2796 31.1973 40.6284 29.7852C40.7461 29.3146 40.9604 29.1506 41.4395 29.1506C41.9859 29.1464 42.528 29.1549 43.0743 29.1464C43.5408 29.138 43.835 28.8523 43.8392 28.3858C43.8476 27.2258 43.8476 26.0701 43.8392 24.9102C43.835 24.4269 43.545 24.1411 43.0533 24.1369C42.5196 24.1285 41.9859 24.1369 41.4563 24.1327C40.973 24.1285 40.7503 23.9688 40.6326 23.5107C40.2796 22.0986 39.7374 20.7706 38.9768 19.5266C38.733 19.1273 38.775 18.8626 39.1028 18.5306C39.4685 18.1607 39.8425 17.7951 40.2081 17.4211C40.62 17.0008 40.6242 16.6268 40.2123 16.2149C39.4306 15.4248 38.6447 14.6389 37.8546 13.8572C37.4512 13.458 37.0814 13.458 36.6737 13.8572C36.2913 14.2312 35.9214 14.6137 35.539 14.9835C35.2196 15.2945 34.9464 15.3365 34.5724 15.1096C33.32 14.3447 31.9793 13.7942 30.5546 13.4412C30.1134 13.3319 29.9453 13.1049 29.9453 12.6426C29.9411 12.1089 29.9495 11.5752 29.9411 11.0456C29.9369 10.5287 29.6595 10.2387 29.1552 10.2387C28.0078 10.2345 26.8605 10.2345 25.7132 10.2387C25.2215 10.2429 24.9357 10.5245 24.9315 11.0162C24.9231 11.5626 24.9315 12.1047 24.9273 12.6511C24.9231 13.1091 24.755 13.3361 24.3137 13.4454C22.9016 13.7942 21.5736 14.3405 20.3296 15.097C19.9177 15.3492 19.6572 15.3029 19.3084 14.9583C18.9385 14.5927 18.5729 14.2186 18.1989 13.853C17.7954 13.4622 17.4214 13.4622 17.0179 13.8614C16.2278 14.6431 15.4419 15.4332 14.6602 16.2191C14.2484 16.631 14.2568 17.0008 14.6686 17.4253C15.0343 17.7993 15.4083 18.1607 15.7739 18.5348C16.0975 18.8668 16.1354 19.1357 15.8958 19.5308C15.1351 20.7748 14.593 22.1028 14.24 23.5149C14.1307 23.9604 13.9038 24.1285 13.4499 24.1327C12.9035 24.1369 12.3614 24.1285 11.815 24.1369C11.3275 24.1411 11.0375 24.4269 11.0333 24.9144C11.0291 26.0617 11.0291 27.209 11.0333 28.3563C11.0375 28.8649 11.3233 29.1422 11.8361 29.1506C12.3698 29.1549 12.9035 29.1507 13.4331 29.1549C13.8953 29.1591 14.1265 29.323 14.2358 29.76C14.5846 31.1847 15.1393 32.5212 15.9042 33.7778C16.1354 34.156 16.0933 34.4292 15.7865 34.7444C15.4125 35.1268 15.0301 35.4966 14.6602 35.8791C14.2652 36.2867 14.261 36.6608 14.656 37.06C15.4377 37.8501 16.2278 38.636 17.0137 39.4219C17.4298 39.8338 17.7996 39.8338 18.2199 39.4261C18.5939 39.0605 18.9553 38.6865 19.3294 38.3208C19.6656 37.9888 19.9261 37.951 20.3254 38.1905C21.5694 38.947 22.8974 39.4976 24.3095 39.8464C24.7718 39.9599 24.9357 40.1826 24.9357 40.6659C24.9399 41.187 24.9315 41.7082 24.9357 42.2293C24.9399 42.784 25.2131 43.053 25.7762 43.0572C26.3268 43.053 26.8815 43.0488 27.4363 43.0488Z" fill="#030303"/>
<path d="M26.2552 26.0566C27.5455 24.7622 28.7852 23.4972 30.0502 22.2574C31.0841 21.2403 32.6895 21.3664 33.5636 22.5011C34.2739 23.4257 34.2024 24.7033 33.3577 25.5733C32.6096 26.3466 31.8364 27.0988 31.0757 27.8637C30.067 28.8724 29.0626 29.881 28.054 30.8854C26.9445 31.9907 25.5786 31.9865 24.4691 30.8812C23.4773 29.8894 22.4771 28.906 21.4978 27.9057C20.8086 27.1997 20.6447 26.1827 21.0482 25.3001C21.439 24.4428 22.3342 23.8922 23.2798 23.9342C23.8933 23.9637 24.4229 24.199 24.86 24.6361C25.3096 25.0984 25.7635 25.5607 26.2552 26.0566ZM32.6475 23.9006C32.6349 23.619 32.5214 23.3753 32.2944 23.1862C31.8826 22.8416 31.3657 22.892 30.9286 23.3291C29.5669 24.6865 28.2095 26.044 26.852 27.4014C26.4317 27.8217 26.0745 27.8217 25.6585 27.4098C25.0743 26.8299 24.4985 26.2457 23.9144 25.6699C23.4647 25.2287 22.8973 25.2118 22.4981 25.6153C22.1114 26.0104 22.1198 26.5735 22.5485 27.0064C23.5403 28.0108 24.5406 29.011 25.545 30.0029C25.9821 30.4357 26.5242 30.4357 26.9613 30.0029C28.76 28.2167 30.5503 26.4222 32.3407 24.6277C32.5382 24.4302 32.6475 24.1948 32.6475 23.9006Z" fill="#D32525"/>
<path d="M16.3116 26.301C16.3243 24.8595 16.7193 23.1869 17.5136 21.6109C17.749 21.1402 18.1398 20.9721 18.5222 21.1738C18.8963 21.3671 18.9887 21.758 18.7618 22.2244C17.4842 24.8511 17.3371 27.5324 18.4004 30.2557C19.9091 34.1137 23.8638 36.6269 27.995 36.3664C29.3609 36.2781 30.6553 35.9251 31.8825 35.3073C32.3405 35.0761 32.7608 35.2064 32.9289 35.6141C33.0802 35.9797 32.9373 36.3201 32.5339 36.5303C31.5 37.0682 30.4115 37.4506 29.26 37.6145C25.1792 38.1987 21.7499 36.9505 19.0013 33.8826C17.2741 31.9494 16.299 29.2639 16.3116 26.301Z" fill="#030303"/>
<path d="M27.1762 15.5195C33.0473 15.5237 37.8131 19.7474 38.4772 25.2907C38.7461 27.5475 38.3553 29.6909 37.3298 31.7165C37.1113 32.1452 36.7373 32.3007 36.3632 32.12C35.9934 31.9393 35.8673 31.5316 36.0816 31.1114C36.8507 29.5942 37.2038 27.9888 37.1659 26.2909C37.0609 21.7731 33.5054 17.7343 29.0422 17.0451C26.9283 16.7173 24.9194 17.0241 23.0072 17.9781C22.6206 18.1714 22.3138 18.142 22.0826 17.894C21.8767 17.6713 21.8221 17.4107 21.9481 17.1249C22.028 16.9484 22.1751 16.8434 22.3432 16.7551C23.9528 15.9314 25.6591 15.5321 27.1762 15.5195Z" fill="#030303"/>
<path d="M20.7535 19.2839C20.7451 19.6662 20.409 19.9855 20.0309 19.9686C19.6613 19.9518 19.363 19.6368 19.3672 19.2629C19.3714 18.8723 19.6949 18.5698 20.0856 18.5824C20.4594 18.595 20.7619 18.9143 20.7535 19.2839Z" fill="#D32525"/>
<path d="M35.5012 34.018C35.497 34.4086 35.1736 34.7153 34.7871 34.7027C34.4174 34.6901 34.115 34.3708 34.1192 34.0054C34.1234 33.6399 34.4384 33.3248 34.8039 33.3164C35.182 33.3122 35.5054 33.6315 35.5012 34.018Z" fill="#D32525"/>
</g>
</g>
<defs>
<clipPath id="clip0_1054_21407">
<rect width="42.0265" height="42.0265" fill="white" transform="translate(5.96094 5.46484)"/>
</clipPath>
<clipPath id="clip1_1054_21407">
<rect width="42.0265" height="42.0265" fill="white" transform="translate(5.96094 5.46484)"/>
</clipPath>
</defs>
</svg>
