<svg width="54" height="53" viewBox="0 0 54 53" fill="none" xmlns="http://www.w3.org/2000/svg">
<rect x="1.30688" y="0.586174" width="51.7826" height="51.7826" rx="25.8913" fill="#E9ECEF"/>
<rect x="1.30688" y="0.586174" width="51.7826" height="51.7826" rx="25.8913" stroke="#DEE2E6" stroke-width="0.750473"/>
<g clip-path="url(#clip0_1054_21368)">
<g clip-path="url(#clip1_1054_21368)">
<path d="M29.4263 22.7192C29.3297 23.5471 28.6783 24.1775 27.8461 24.2405C27.4595 24.2741 27.0645 24.2615 26.6736 24.2615C25.9466 24.2573 25.4044 24.0346 25.0682 23.6101C24.8034 23.2781 24.6689 22.82 24.6689 22.2443V16.9531H25.8289C25.8289 16.9531 25.8289 17.0834 25.8247 17.3019C25.8247 18.361 25.8121 21.5214 25.8289 22.5426C25.8331 22.8831 26.0684 23.0974 26.4215 23.11C26.8459 23.1268 27.2788 23.131 27.7075 23.11C28.0773 23.0932 28.2748 22.8663 28.3084 22.5048C28.3295 22.2905 28.3084 22.0762 28.3252 21.8618C28.3505 21.5298 28.5774 21.3071 28.88 21.3071C29.1784 21.3029 29.4263 21.5172 29.4474 21.8492C29.4642 22.1392 29.46 22.4292 29.4263 22.7192Z" fill="#D32525"/>
<path d="M29.4467 19.9173C29.4383 20.3123 29.2197 20.535 28.8793 20.535C28.5389 20.5392 28.3119 20.3291 28.3119 19.9215C28.3119 19.7365 28.2783 17.7361 28.2783 17.3326L29.4509 17.3242C29.4509 17.4881 29.4593 19.0557 29.4467 19.9173Z" fill="#D32525"/>
<path d="M29.8633 31.9068C29.6532 31.8185 29.5692 31.7219 29.5776 31.4949C29.5986 31.0662 29.5902 30.6376 29.5818 30.2089C29.5607 29.423 29.0985 28.9733 28.321 28.9565H27.783V27.6663C28.1949 27.6663 28.5815 27.6579 28.9724 27.6663C30.0399 27.6873 30.8257 27.2334 31.3679 26.3046C32.179 24.9136 33.0195 23.5351 33.8559 22.1566C34.0912 21.7616 34.3013 21.3539 34.3602 20.9C34.5073 19.8242 34.5031 18.7357 34.3896 17.6556C34.3181 16.9369 33.7424 16.399 33.0405 16.2477C32.9103 16.2183 32.7758 16.1931 32.6245 16.1637V15.7392C32.6245 13.1378 32.6203 10.5363 32.6287 7.93487C32.6287 7.58605 32.5614 7.29187 32.2673 7.08594H31.8092C31.5402 7.31288 31.4772 7.59866 31.4772 7.94328C31.4898 10.3304 31.4856 12.7175 31.4856 15.1046V15.5501C30.2332 14.3649 28.8127 13.7639 27.1694 13.7681C25.543 13.7724 24.1351 14.3733 22.8953 15.5543V15.1046C22.8953 12.7175 22.8869 10.3304 22.8996 7.94328C22.9038 7.59866 22.8365 7.31288 22.5675 7.08594H22.1137C21.8111 7.29187 21.748 7.58605 21.748 7.93487C21.7606 10.5489 21.7564 13.163 21.7522 15.7728C21.7522 15.9073 21.7943 16.0502 21.7144 16.1763C20.4704 16.378 19.9325 17.0042 19.9325 18.2566C19.9325 18.8113 19.9409 19.3661 19.9283 19.9208C19.9157 20.7529 20.1216 21.5094 20.5587 22.2197C20.7856 22.5853 21.0126 22.9509 21.2353 23.3208C21.3992 23.5855 21.7438 23.6738 22.0128 23.5099C22.2776 23.3502 22.3616 23.0056 22.2019 22.7408C21.954 22.3247 21.7018 21.9045 21.4496 21.4884C21.1891 21.0555 21.0756 20.5806 21.0714 20.0805C21.0672 19.4375 21.0672 18.7945 21.0714 18.1473C21.0756 17.5757 21.3067 17.3362 21.8741 17.3362C23.0466 17.332 23.9418 17.3236 24.6689 17.3152C25.1059 17.311 25.4842 17.3068 25.8246 17.3026C27.8293 17.2732 28.5227 17.2605 32.7169 17.3488C33.0742 17.3572 33.2969 17.6304 33.3011 18.0212C33.3137 18.7777 33.3137 19.5342 33.2969 20.2907C33.2885 20.7277 33.1414 21.1312 32.9187 21.5052C32.0487 22.9509 31.1746 24.3966 30.313 25.8466C30.0399 26.3004 29.649 26.5274 29.1279 26.5274C27.8419 26.5316 26.5517 26.5274 25.2656 26.5274C24.7277 26.5274 24.3327 26.2962 24.0553 25.8297C23.9208 25.6028 23.7863 25.3801 23.6518 25.1531C23.4879 24.8842 23.1349 24.7959 22.8659 24.9598C22.6054 25.1195 22.5129 25.4599 22.6684 25.7247C22.7356 25.8424 22.8029 25.9642 22.8701 26.0861C23.4963 27.2124 24.3873 27.7588 25.6775 27.6747C25.9843 27.6537 26.2995 27.6285 26.6021 27.7041V28.9607H26.1398C25.2656 28.9691 24.8034 29.4188 24.7991 30.2888C24.7949 31.0831 24.7949 31.8774 24.7991 32.6717C24.8076 33.9955 25.3581 35.0293 26.4718 35.7522C27.035 36.122 27.6948 36.2103 28.3168 36.4036C28.5983 36.4961 28.8379 36.3364 28.9346 36.0422C29.0312 35.7564 28.943 35.5126 28.674 35.3656C28.3756 35.2017 28.0352 35.1428 27.7074 35.0504C26.7744 34.7856 26.1524 34.1804 26.0011 33.2306C25.8372 32.2094 25.9633 31.1713 25.9339 30.1207H28.447V31.3814C28.447 32.3817 28.611 32.6254 29.5355 33.0037C32.116 34.0543 33.6751 36.8239 33.2381 39.5766C32.8304 42.136 30.8257 44.1911 28.2831 44.6576C25.7279 45.1241 23.1475 43.9053 21.8699 41.6317C21.4538 40.8878 21.1891 40.0977 21.1176 39.211H22.2734C22.9752 39.2152 23.5047 39.5304 23.883 40.1103C23.9628 40.2406 24.0301 40.3751 24.1099 40.5054C25.0177 42.0015 26.8669 42.6319 28.4933 42.0057C30.1113 41.3795 31.0695 39.6439 30.7375 37.9418C30.7249 37.8787 30.7081 37.8199 30.6871 37.7611C30.5862 37.408 30.3424 37.2483 30.0104 37.3156C29.7036 37.3744 29.5229 37.656 29.586 38.0048C29.7793 39.0008 29.5523 39.8666 28.7664 40.5306C27.5645 41.5434 25.791 41.1946 25.0135 39.7867C24.5218 38.8958 23.8199 38.2822 22.8071 38.1183C22.0212 37.9922 21.2185 38.0595 20.4242 38.0889C20.1006 38.0973 19.9409 38.3578 19.9451 38.6688C19.9451 39.0093 19.9661 39.3497 20.0207 39.6859C20.6848 43.8507 24.505 46.5278 28.6488 45.7377C32.4186 45.019 35.0284 41.224 34.335 37.4459C33.8432 34.794 32.3345 32.9532 29.8633 31.9068ZM23.9334 16.1637C25.8162 14.4952 28.6782 14.4994 30.4349 16.1637H23.9334Z" fill="#050505"/>
</g>
</g>
<defs>
<clipPath id="clip0_1054_21368">
<rect width="42.0265" height="42.0265" fill="white" transform="translate(6.18555 5.46484)"/>
</clipPath>
<clipPath id="clip1_1054_21368">
<rect width="42.0265" height="42.0265" fill="white" transform="translate(6.18555 5.46484)"/>
</clipPath>
</defs>
</svg>
