<svg width="53" height="53" viewBox="0 0 53 53" fill="none" xmlns="http://www.w3.org/2000/svg">
<rect x="0.386955" y="0.586174" width="51.7826" height="51.7826" rx="25.8913" fill="#E9ECEF"/>
<rect x="0.386955" y="0.586174" width="51.7826" height="51.7826" rx="25.8913" stroke="#DEE2E6" stroke-width="0.750473"/>
<g clip-path="url(#clip0_1054_21479)">
<g clip-path="url(#clip1_1054_21479)">
<path d="M41.4421 37.6072C38.0799 42.2049 32.6795 45.214 26.4596 45.2728C15.8942 45.3737 7.57712 37.0104 7.46785 26.6845C7.43843 23.8435 8.0268 21.1538 9.10268 18.7415M10.1533 16.7326C13.423 11.2986 19.3655 7.69692 26.1864 7.67591C36.7015 7.63808 45.0185 16.0182 45.09 26.487C45.0731 29.5507 44.3377 32.4505 43.0349 35.0141M27.4809 41.3349C28.5904 41.2425 29.6284 41.0491 30.6455 40.7339C32.7132 40.0951 34.5707 39.0739 36.1761 37.6198C37.2856 36.6195 37.1554 34.7788 35.9114 34.0475C33.5873 32.6817 31.2464 31.3536 28.9182 30.0004C28.7585 29.9079 28.6492 29.9163 28.4895 30.013C27.0312 30.8871 25.5603 30.8787 24.0935 30.0382C23.8708 29.9121 23.7363 29.9373 23.5388 30.0508C21.303 31.3494 19.063 32.6354 16.8271 33.9257C15.3688 34.7662 15.1839 36.6111 16.4615 37.7122C19.0293 39.9228 21.9838 41.1122 25.1778 41.3559M39.0928 18.8508C37.3319 15.8038 34.6212 13.6269 30.9775 12.3282C29.5528 11.8197 28.023 12.9124 28.0146 14.4043C28.002 17.073 28.0146 19.7459 28.0062 22.4146C28.0062 22.5995 28.0608 22.7046 28.2247 22.7802C28.5904 22.9525 28.914 23.1963 29.1997 23.4821C30.1327 24.4193 30.5236 25.5624 30.4521 26.882C32.8729 28.2815 35.2726 29.702 37.7101 31.0594C38.9373 31.7445 40.6225 30.8325 40.8915 29.4372C41.316 27.2476 41.3202 25.0581 40.7402 22.9021C40.5385 22.1456 40.2947 21.427 40.0174 20.7461M18.7856 28.7648C19.7774 28.1974 20.7776 27.6427 21.7695 27.0753C21.9964 26.9451 22.0847 26.819 22.0847 26.5458C22.1057 24.8858 22.8243 23.6166 24.2826 22.8012C24.4676 22.6962 24.539 22.5911 24.5348 22.381C24.5264 21.0571 24.5306 19.7333 24.5306 18.4137C24.5306 17.1024 24.5348 15.7912 24.5306 14.48C24.5222 12.9334 23.0219 11.8407 21.5551 12.3366C18.0753 13.5134 15.3646 15.6735 13.4776 18.8213C11.5696 22.0027 10.9939 25.4405 11.5612 29.101C11.8848 31.1981 13.9105 31.7067 15.2554 30.8619C15.7681 30.5383 16.2892 30.2231 16.8103 29.9121" stroke="black" stroke-width="1.26079" stroke-miterlimit="10" stroke-linecap="round"/>
<path d="M26.2782 25.2272C26.9674 25.2272 27.5264 25.7862 27.5264 26.4754C27.5264 27.1647 26.9674 27.7236 26.2782 27.7236C25.5889 27.7236 25.03 27.1647 25.03 26.4754C25.03 25.7862 25.5889 25.2272 26.2782 25.2272ZM26.2782 24.3867C25.1266 24.3867 24.1895 25.3197 24.1895 26.4754C24.1895 27.6312 25.1224 28.5642 26.2782 28.5642C27.4339 28.5642 28.3669 27.6312 28.3669 26.4754C28.3669 25.3197 27.4297 24.3867 26.2782 24.3867Z" fill="#D32525"/>
</g>
</g>
<defs>
<clipPath id="clip0_1054_21479">
<rect width="42.0265" height="42.0265" fill="white" transform="translate(5.26562 5.46484)"/>
</clipPath>
<clipPath id="clip1_1054_21479">
<rect width="42.0265" height="42.0265" fill="white" transform="translate(5.26562 5.46484)"/>
</clipPath>
</defs>
</svg>
