<svg width="54" height="53" viewBox="0 0 54 53" fill="none" xmlns="http://www.w3.org/2000/svg">
<rect x="1.31176" y="0.586174" width="51.7826" height="51.7826" rx="25.8913" fill="#E9ECEF"/>
<rect x="1.31176" y="0.586174" width="51.7826" height="51.7826" rx="25.8913" stroke="#DEE2E6" stroke-width="0.750473"/>
<g clip-path="url(#clip0_1054_21381)">
<g clip-path="url(#clip1_1054_21381)">
<path d="M22.129 24.1796C22.7468 24.1753 23.2595 24.4191 23.684 24.8562C24.3438 25.5328 25.0036 26.2052 25.6634 26.8777C26.2266 27.4534 26.5544 27.4492 27.1301 26.865C29.1894 24.7637 31.2487 22.6624 33.308 20.5611C34.3251 19.5272 35.527 19.5272 36.5525 20.5569C36.7374 20.746 36.9223 20.9309 37.1072 21.1242C38.1075 22.1623 38.1075 23.3726 37.1072 24.3981C35.4304 26.1128 33.7451 27.8275 32.0683 29.5421C30.7276 30.908 29.387 32.2781 28.0463 33.6439C26.9915 34.7198 25.7979 34.7198 24.743 33.6481C23.1292 32.0049 21.5154 30.3574 19.9058 28.7142C18.956 27.7434 18.956 26.5036 19.8974 25.5328C20.1495 25.2722 20.3975 25.0117 20.6581 24.7637C21.0699 24.3687 21.5574 24.1711 22.129 24.1796ZM22.1374 25.4151C21.9104 25.5454 21.7045 25.6253 21.5406 25.7597C21.3179 25.9447 21.1288 26.1716 20.927 26.3775C20.3891 26.9365 20.3807 27.2895 20.9144 27.8317C22.5114 29.4707 24.1168 31.1013 25.718 32.7361C26.2014 33.2279 26.5754 33.2279 27.0629 32.7319C27.9875 31.7948 28.9079 30.8534 29.8324 29.912C31.9296 27.7728 34.0225 25.6337 36.1196 23.4903C36.6702 22.9314 36.6659 22.5699 36.107 22.0026C35.9515 21.8429 35.796 21.6874 35.6405 21.5277C35.0858 20.9687 34.7664 20.9687 34.2116 21.5319C32.1607 23.6206 30.114 25.7093 28.0631 27.798C27.0041 28.8781 25.7685 28.8823 24.7178 27.8106C24.0664 27.1466 23.4234 26.4742 22.7636 25.8228C22.5997 25.6673 22.3685 25.5664 22.1374 25.4151Z" fill="black"/>
<path d="M45.9243 20.2997C45.8234 24.6368 45.1174 28.8352 43.3523 32.8152C43.1043 33.3741 42.7807 33.5674 42.3815 33.3993C41.9738 33.227 41.894 32.853 42.1209 32.2982C42.4067 31.5922 42.7051 30.8903 42.953 30.1717C44.2264 26.4481 44.6551 22.6111 44.4576 18.6943C44.4071 17.6856 44.2811 16.677 44.1802 15.6726C44.1172 15.0548 43.9827 14.9161 43.3733 14.8068C39.4144 14.0966 35.653 12.7979 32.1438 10.8353C30.6603 10.0032 29.2566 9.02816 27.8277 8.09938C27.2351 7.71273 27.1637 7.70853 26.5753 8.09938C25.3061 8.93991 24.0201 9.76363 22.7383 10.5873C22.4399 10.7807 22.1331 10.7975 21.8599 10.5453C21.633 10.3352 21.5741 10.0578 21.7212 9.78884C21.7969 9.65016 21.9356 9.53668 22.0701 9.44843C23.3897 8.57848 24.7177 7.72114 26.0332 6.85119C26.8106 6.33847 27.6428 6.33427 28.4329 6.91423C30.4964 8.42719 32.6775 9.73841 35.0058 10.8017C37.8048 12.0835 40.7256 12.9745 43.7473 13.5334C44.7686 13.7225 45.3779 14.3319 45.4872 15.3742C45.6595 17.0132 45.7814 18.6564 45.9243 20.2997Z" fill="black"/>
<path d="M16.9062 16.4381C16.7381 16.4171 16.6247 16.3078 16.5826 16.1187C16.5196 15.8035 16.444 15.4925 16.3851 15.1773C16.196 14.1602 15.574 13.5887 14.5738 13.3995C14.288 13.3449 14.0064 13.2735 13.7206 13.223C13.5105 13.1852 13.376 13.0844 13.3592 12.8658C13.3466 12.6683 13.4811 12.5506 13.729 12.496C14.1409 12.4035 14.557 12.3111 14.9646 12.2018C15.6497 12.0211 16.0909 11.5798 16.2758 10.899C16.3893 10.4829 16.4818 10.0626 16.5742 9.63818C16.6205 9.43225 16.7171 9.28516 16.9399 9.28516C17.1626 9.28516 17.2593 9.42805 17.3055 9.63398C17.4148 10.1047 17.5198 10.5796 17.6585 11.0419C17.8266 11.6008 18.2091 11.9791 18.768 12.1472C19.1715 12.269 19.5875 12.3699 19.9994 12.4582C20.3776 12.5422 20.5289 12.6389 20.5247 12.8658C20.5205 13.0886 20.3776 13.181 19.991 13.2651C19.5791 13.3533 19.1631 13.4542 18.7596 13.5803C18.2091 13.7484 17.8308 14.1224 17.6669 14.6687C17.524 15.1394 17.4232 15.6185 17.3097 16.0976C17.2467 16.3204 17.1206 16.4423 16.9062 16.4381ZM18.6041 12.8532C17.7468 12.5716 17.2256 12.0337 16.9399 11.2058C16.6541 12.0421 16.1288 12.5674 15.2924 12.8532C16.1288 13.139 16.6583 13.6727 16.9441 14.5048C17.2256 13.6727 17.7552 13.1432 18.6041 12.8532Z" fill="#D32525"/>
<path d="M37.827 39.7662C37.6547 39.7452 37.5496 39.6317 37.5076 39.4384C37.4277 39.0559 37.3437 38.6777 37.2512 38.2995C37.0663 37.5598 36.604 37.0933 35.8643 36.9084C35.4945 36.8159 35.1205 36.7319 34.7464 36.652C34.5447 36.61 34.4102 36.5218 34.3934 36.3074C34.3808 36.1183 34.5111 35.9964 34.7464 35.946C35.1541 35.8535 35.5618 35.7653 35.9652 35.656C36.6082 35.4795 37.0285 35.0676 37.2092 34.4246C37.3101 34.0716 37.3941 33.7144 37.4698 33.353C37.5496 32.9747 37.6379 32.8402 37.8564 32.836C38.0749 32.8318 38.1674 32.9747 38.2514 33.3445C38.3397 33.7522 38.4364 34.1599 38.5624 34.5591C38.7263 35.0802 39.0836 35.4417 39.6047 35.6056C40.0502 35.7443 40.5083 35.8409 40.9664 35.9502C41.2101 36.009 41.332 36.1183 41.332 36.3074C41.332 36.4923 41.2101 36.6058 40.9664 36.6646C40.5125 36.7739 40.0544 36.8706 39.6047 37.0093C39.0878 37.169 38.7305 37.522 38.5708 38.0347C38.428 38.4928 38.3313 38.9677 38.2178 39.4384C38.1548 39.6485 38.0329 39.7704 37.827 39.7662ZM39.4618 36.299C38.6423 36.0216 38.1338 35.5089 37.8564 34.702C37.5832 35.5089 37.0663 36.0258 36.2552 36.3032C37.0747 36.5764 37.579 37.1017 37.8564 37.9002C38.138 37.0807 38.6507 36.5764 39.4618 36.299Z" fill="#D32525"/>
<path d="M12.6071 20.5036C12.6071 19.7849 12.5902 19.0621 12.6155 18.3434C12.6239 18.1333 12.7037 17.9021 12.813 17.7172C12.9727 17.4399 13.2417 17.3264 13.5611 17.4356C13.8931 17.5491 14.0402 17.7929 14.0233 18.1375C13.9771 19.0621 13.8636 19.9867 13.8931 20.907C13.9981 24.3364 14.6369 27.6565 16.1457 30.7622C18.3983 35.402 22 38.5582 26.8288 40.3275C27.0516 40.4073 27.3583 40.3989 27.5811 40.3149C28.3166 40.0333 29.0352 39.7055 29.7581 39.3819C30.2456 39.1633 30.607 39.2348 30.8003 39.6088C30.9894 39.9829 30.8423 40.3527 30.359 40.5712C29.5647 40.9327 28.7578 41.2605 27.9551 41.6009C27.4424 41.8194 26.9381 41.7858 26.417 41.5967C19.9911 39.2096 15.7843 34.7169 13.7292 28.1944C12.9769 25.8325 12.586 23.1386 12.6071 20.5036Z" fill="black"/>
<path d="M8.47949 20.2856C8.58876 18.8483 8.68122 17.411 8.81991 15.9737C8.84512 15.7257 8.98801 15.4316 9.17713 15.2761C9.31162 15.1668 9.67304 15.1626 9.81593 15.2676C9.99245 15.3979 10.1437 15.6963 10.1353 15.9191C10.0975 16.8478 9.95882 17.7682 9.921 18.697C9.68985 24.2613 10.585 29.5819 13.3756 34.4864C13.5185 34.7385 13.6782 34.9865 13.8211 35.2386C14.0564 35.6505 13.9934 36.0119 13.6614 36.2263C13.3167 36.449 12.9427 36.3397 12.6821 35.9195C11.4634 33.9862 10.5472 31.9101 9.88318 29.7248C8.94599 26.6526 8.55094 23.5006 8.47949 20.2856Z" fill="black"/>
<path d="M27.1733 46.4715C26.7909 46.3706 26.3832 46.2782 25.9882 46.1563C22.7774 45.1351 19.8859 43.538 17.3223 41.3443C17.2383 41.2728 17.15 41.2014 17.0786 41.1173C16.8516 40.8568 16.8474 40.4869 17.0744 40.2432C17.3265 39.9742 17.6333 39.9238 17.9359 40.1339C18.2301 40.3398 18.4949 40.5878 18.7764 40.8147C21.1972 42.7564 23.8953 44.1642 26.8749 45.0132C27.1061 45.0804 27.4003 45.051 27.6356 44.9796C29.9597 44.2819 32.1325 43.2565 34.1413 41.8864C34.7255 41.4872 35.1163 41.4914 35.3643 41.8864C35.5996 42.2646 35.4526 42.6051 34.8852 42.9917C32.7334 44.4458 30.4178 45.5511 27.9256 46.2824C27.6945 46.358 27.4507 46.4085 27.1733 46.4715Z" fill="black"/>
<path d="M41.8227 20.6499C41.789 23.5791 41.2931 26.4327 40.3475 29.2064C40.1752 29.7108 39.86 29.9125 39.4566 29.7822C39.0657 29.6603 38.9228 29.2863 39.0909 28.7904C40.1626 25.6216 40.6291 22.3603 40.5114 19.0192C40.4988 18.6368 40.4442 18.2964 40.1584 17.9938C39.9105 17.729 39.9441 17.4054 40.1878 17.128C40.419 16.8717 40.8098 16.8507 41.0914 17.086C41.4738 17.4096 41.7134 17.8257 41.7806 18.3258C41.7974 18.4351 41.8185 18.5443 41.8185 18.6578C41.8227 19.3176 41.8227 19.9816 41.8227 20.6499Z" fill="black"/>
<path d="M27.2738 11.082C27.5848 11.1997 27.9714 11.2838 28.2908 11.4855C30.0979 12.6202 31.9681 13.633 33.9266 14.482C34.4015 14.6879 34.5738 15.0535 34.4057 15.4318C34.2375 15.8058 33.8383 15.9319 33.3718 15.6881C31.51 14.7173 29.6567 13.7297 27.8075 12.7337C27.4965 12.5656 27.2233 12.4143 26.8409 12.5319C26.4837 12.6412 26.1685 12.4185 26.0634 12.0823C25.9625 11.7545 26.118 11.4182 26.4753 11.2838C26.7022 11.1955 26.9502 11.1577 27.2738 11.082Z" fill="black"/>
<path d="M36.8142 15.6016C37.1798 15.736 37.6589 15.8705 38.1002 16.0933C38.386 16.2362 38.4322 16.564 38.3103 16.8624C38.1842 17.1607 37.9237 17.3289 37.6085 17.2532C37.1924 17.1565 36.7806 17.0179 36.3939 16.8455C36.1039 16.7153 35.982 16.4421 36.0661 16.1143C36.1502 15.7949 36.3687 15.6352 36.8142 15.6016Z" fill="black"/>
<path d="M15.6526 39.4465C15.4299 39.3331 15.2451 39.2827 15.1275 39.1693C14.8838 38.9299 14.657 38.661 14.4511 38.3838C14.2327 38.0897 14.2873 37.7116 14.5478 37.489C14.804 37.2706 15.1989 37.2748 15.4467 37.5352C15.6862 37.7831 15.9424 38.0351 16.1062 38.3292C16.2112 38.5182 16.2323 38.8164 16.1566 39.0139C16.0894 39.1903 15.8374 39.2995 15.6526 39.4465Z" fill="black"/>
</g>
</g>
<defs>
<clipPath id="clip0_1054_21381">
<rect width="42.0265" height="42.0265" fill="white" transform="translate(6.18945 5.46484)"/>
</clipPath>
<clipPath id="clip1_1054_21381">
<rect width="42.0265" height="42.0265" fill="white" transform="translate(6.18945 5.46484)"/>
</clipPath>
</defs>
</svg>
