<svg width="19" height="19" viewBox="0 0 19 19" fill="none" xmlns="http://www.w3.org/2000/svg">
<path d="M18.4725 16.9762L14.6224 13.1373C15.1715 12.4589 15.6013 11.697 15.9117 10.8519C16.2221 10.0068 16.3773 9.11401 16.3773 8.17364C16.3773 7.07853 16.1684 6.04889 15.7505 5.08471C15.3327 4.12054 14.7626 3.27838 14.0404 2.55822C13.3181 1.83807 12.4735 1.26968 11.5065 0.853064C10.5395 0.436445 9.51276 0.228136 8.42637 0.228136C7.32804 0.228136 6.29537 0.436445 5.32837 0.853064C4.36136 1.26968 3.51672 1.83807 2.79445 2.55822C2.07218 3.27838 1.50213 4.12054 1.08428 5.08471C0.666441 6.04889 0.45752 7.07853 0.45752 8.17364C0.45752 9.25685 0.666441 10.2805 1.08428 11.2447C1.50213 12.2089 2.07218 13.051 2.79445 13.7712C3.51672 14.4914 4.36136 15.0597 5.32837 15.4764C6.29537 15.893 7.32804 16.1013 8.42637 16.1013C9.35756 16.1013 10.244 15.9495 11.0856 15.646C11.9273 15.3424 12.6824 14.9229 13.3509 14.3872L13.333 14.4051L17.2011 18.2439C17.2846 18.3272 17.3801 18.3927 17.4876 18.4403C17.595 18.4879 17.7084 18.5117 17.8278 18.5117C18.0785 18.5117 18.2934 18.4224 18.4725 18.2439C18.6516 18.0653 18.7411 17.857 18.7411 17.619C18.7411 17.488 18.7172 17.369 18.6695 17.2619C18.6217 17.1547 18.5561 17.0595 18.4725 16.9762ZM2.26618 8.17364C2.26618 7.3166 2.42735 6.51907 2.74968 5.78106C3.07202 5.03115 3.51075 4.37944 4.06589 3.82593C4.62102 3.27242 5.27464 2.83498 6.02676 2.51358C6.76694 2.19219 7.56681 2.0315 8.42637 2.0315C9.27399 2.0315 10.0679 2.19219 10.8081 2.51358C11.5602 2.83498 12.2138 3.27242 12.7689 3.82593C13.3241 4.37944 13.7628 5.03115 14.0851 5.78106C14.4194 6.51907 14.5866 7.3166 14.5866 8.17364C14.5866 9.01878 14.4194 9.81035 14.0851 10.5484C13.7628 11.2983 13.3241 11.95 12.7689 12.5035C12.2138 13.057 11.5602 13.4944 10.8081 13.8158C10.0679 14.1491 9.27399 14.3158 8.42637 14.3158C7.56681 14.3158 6.76694 14.1491 6.02676 13.8158C5.27464 13.4944 4.62102 13.057 4.06589 12.5035C3.51075 11.95 3.07202 11.2983 2.74968 10.5484C2.42735 9.81035 2.26618 9.01878 2.26618 8.17364Z" fill="#722875"/>
</svg>
