<svg width="68" height="68" viewBox="0 0 68 68" fill="none" xmlns="http://www.w3.org/2000/svg">
<rect x="1.36019" y="1.36019" width="65.2891" height="65.2891" stroke="#EDEDED" stroke-width="2.72038"/>
<path d="M34.7834 32.7371L42.1931 25.3274C42.7379 24.837 43.5552 24.837 44.0455 25.3274L45.2986 26.5805C45.789 27.0708 45.789 27.9426 45.2986 28.4329L40.0138 33.6633L45.2986 38.9481C45.789 39.4385 45.789 40.2557 45.2986 40.8006L44.0455 41.9992C43.5552 42.544 42.7379 42.544 42.1931 41.9992L34.7834 34.5895C34.2931 34.0991 34.2931 33.2819 34.7834 32.7371ZM24.3227 34.5895C23.8323 34.0991 23.8323 33.2819 24.3227 32.7371L31.7324 25.3274C32.2772 24.837 33.0944 24.837 33.5848 25.3274L34.8379 26.5805C35.3282 27.0708 35.3282 27.9426 34.8379 28.4329L29.553 33.6633L34.8379 38.9481C35.3282 39.4385 35.3282 40.2557 34.8379 40.8006L33.5848 41.9992C33.0944 42.544 32.2772 42.544 31.7324 41.9992L24.3227 34.5895Z" fill="#071C1F"/>
</svg>
