<svg width="203" height="162" viewBox="0 0 203 162" fill="none" xmlns="http://www.w3.org/2000/svg">
<rect x="0.582031" y="0.015625" width="201.669" height="161.983" fill="#EEEEF0"/>
<g opacity="0.11">
<path d="M54.7229 90.5422C47.3433 90.5422 41.3496 96.5458 41.3496 103.92C41.3496 111.295 47.345 117.297 54.7229 117.297C62.1024 117.297 68.0978 111.295 68.0978 103.922C68.101 96.5458 62.1024 90.5422 54.7229 90.5422Z" fill="black"/>
<path d="M54.7365 69.2048C35.5931 69.2048 20.0195 84.7751 20.0195 103.922C20.0195 123.067 35.5947 138.644 54.7365 138.644C73.8831 138.644 89.4649 123.065 89.4649 103.922C89.4665 84.7751 73.8831 69.2048 54.7365 69.2048ZM54.7414 123.473C43.9618 123.473 35.1899 114.705 35.1899 103.92C35.1899 93.1357 43.9602 84.3655 54.7414 84.3655C65.5226 84.3655 74.2928 93.1373 74.2928 103.92C74.2928 114.703 65.5226 123.473 54.7414 123.473Z" fill="black"/>
<path d="M158.516 89.1902C144.879 89.1902 133.794 100.282 133.794 113.916C133.794 127.552 144.877 138.648 158.516 138.648C172.149 138.648 183.249 127.552 183.249 113.916C183.25 100.282 172.149 89.1902 158.516 89.1902ZM158.516 125.554C152.089 125.554 146.88 120.346 146.88 113.918C146.88 107.49 152.087 102.284 158.516 102.284C164.944 102.284 170.156 107.488 170.156 113.918C170.156 120.344 164.944 125.554 158.516 125.554Z" fill="black"/>
<path d="M138.495 91.5424C133.324 87.4959 125.001 82.4995 113.717 80.043V76.9057C126.387 79.5043 135.526 85.09 141.004 89.5086C145.945 85.9371 151.988 83.807 158.535 83.807C162.087 83.807 165.478 84.4583 168.635 85.5976C168.304 77.8459 167.346 69.6812 164.764 68.7035C152.055 63.9715 135.495 61.1412 122.141 59.9463V35.3332C122.141 31.8776 123.863 31.0762 124.105 30.9783C125.75 30.5163 126.707 28.8057 126.238 27.1653C125.775 25.5281 124.087 24.583 122.427 25.0384C120.026 25.7191 115.965 28.6457 115.965 35.3332V59.4893C115.02 59.4354 114.129 59.4028 113.242 59.3669L106.018 28.2834C105.735 27.0771 104.766 26.1549 103.548 25.941C102.059 25.6799 66.7876 19.5474 40.2581 24.8882C38.5883 25.2245 37.5028 26.8519 37.8358 28.5249C38.1721 30.1964 39.7929 31.2884 41.4742 30.9424C41.8431 30.8689 42.2266 30.8183 42.5972 30.7497L37.7264 59.0829C37.7183 59.1416 37.7395 59.2004 37.7313 59.264H36.6361C30.7991 59.264 29.6369 63.0281 29.6369 63.0281L26.0605 71.9926L29.0329 73.4698C35.9848 67.587 44.9623 64.0205 54.756 64.0205C76.7689 64.0205 94.6701 81.9266 94.6701 103.928C94.6701 107.788 94.0923 111.508 93.064 115.041H128.586C128.571 114.633 128.525 114.231 128.525 113.816C128.525 104.974 132.389 97.0415 138.495 91.5424ZM150.285 69.8918C151.075 69.5833 151.97 69.9718 152.291 70.7651L154.795 77.1489C155.107 77.9406 154.712 78.8351 153.922 79.1501C153.736 79.2187 153.548 79.2546 153.355 79.2546C152.742 79.2546 152.162 78.8824 151.919 78.2768L149.412 71.893C149.102 71.0997 149.492 70.2019 150.285 69.8918ZM143.008 69.8918C143.79 69.5833 144.695 69.9718 145.01 70.7651L147.517 77.1489C147.827 77.9406 147.434 78.8351 146.642 79.1501C146.456 79.2187 146.267 79.2546 146.076 79.2546C145.457 79.2546 144.879 78.8824 144.637 78.2768L142.134 71.893C141.822 71.0997 142.212 70.2019 143.008 69.8918ZM70.5646 60.7951C68.1374 60.0002 65.7935 59.4273 63.7352 59.264H43.9634L48.5256 32.7281H70.5646V60.7951ZM107.537 84.5742L96.3514 84.5611C92.638 74.5911 84.679 67.4679 76.7379 63.3513V32.7297H100.71L107.534 62.1091V84.5758L107.537 84.5742Z" fill="black"/>
</g>
</svg>
